<svg xmlns="http://www.w3.org/2000/svg" width="174" height="235" viewBox="0 0 174 235" version="1.1">
	<path d="M 74.500 15.109 C 59.379 17.290, 45.141 24.259, 33.434 35.211 C 16.127 51.401, 8.733 68.890, 8.793 93.500 C 8.845 114.951, 12.854 126.294, 29.709 152.669 C 48.550 182.153, 83.331 226, 87.877 226 C 90.153 226, 110.880 200.670, 129.200 175.500 C 159.680 133.623, 166.362 118.607, 166.358 92 C 166.356 77.842, 164.911 71.026, 159.364 59.008 C 144.841 27.540, 110.714 9.887, 74.500 15.109 M 77.500 42.107 C 68.585 43.907, 58.079 49.709, 51.367 56.538 C 31.926 76.319, 31 107.594, 49.262 127.592 C 64.961 144.783, 90.135 149.049, 112 138.223 C 118.759 134.876, 130.512 123.346, 134.217 116.425 C 148.642 89.483, 134.870 55.376, 104.910 43.848 C 98.600 41.420, 85.140 40.565, 77.500 42.107 M 103.677 71.450 C 85.857 77.739, 74.088 87.738, 66.811 102.772 C 63.159 110.318, 62.562 112.510, 62.180 119.788 C 61.683 129.270, 62.540 131.187, 66.205 128.785 C 67.551 127.903, 69.002 125.446, 69.689 122.887 C 70.928 118.270, 80.621 102.937, 82.737 102.246 C 83.417 102.024, 81.282 107.390, 77.992 114.171 C 74.701 120.952, 72.007 127.287, 72.005 128.250 C 71.993 132.475, 85.528 128.700, 96 121.558 C 103.267 116.601, 108.695 110.091, 112.511 101.756 C 117.082 91.773, 119.428 75.536, 116.965 70.934 C 115.583 68.352, 112.068 68.489, 103.677 71.450" stroke="none" fill="#000000" fill-rule="evenodd"/>
</svg>